<svg viewBox="0 0 334.33 257.01" xmlns:xlink="http://www.w3.org/1999/xlink" xmlns="http://www.w3.org/2000/svg" data-name="Layer 1" id="Layer_1">
  <defs>
    <style>
      .cls-1 {
        clip-path: url(#clippath);
      }

      .cls-2 {
        fill: #fff;
      }

      .cls-3 {
        clip-rule: evenodd;
        fill: none;
      }

      .cls-4 {
        fill: #f9a029;
      }

      .cls-4, .cls-5, .cls-6, .cls-7, .cls-8, .cls-9, .cls-10, .cls-11, .cls-12, .cls-13 {
        fill-rule: evenodd;
      }

      .cls-5 {
        fill: #f4bdd0;
      }

      .cls-6 {
        fill: #4f76ba;
      }

      .cls-7 {
        fill: #894297;
      }

      .cls-8 {
        fill: #8a662b;
      }

      .cls-9 {
        fill: #090a0b;
      }

      .cls-10 {
        fill: #8dd5e8;
      }

      .cls-11 {
        fill: #f5eb1d;
      }

      .cls-12 {
        fill: #eb3932;
      }

      .cls-13 {
        fill: #029051;
      }
    </style>
    <clipPath id="clippath">
      <path d="m178.74,49.48c-6.98,7.48-10.47,16.45-10.47,27.05s3.49,19.57,10.47,27.05c6.98,7.48,15.45,11.22,25.3,11.22,7.6,0,14.58-2.49,20.69-7.35,6.11-4.86,10.34-10.97,12.96-18.45h43.37c-2.87,18.32-11.59,33.65-26.05,45.86-14.46,12.21-31.41,18.32-50.97,18.32-21.93,0-40.38-7.48-55.46-22.31-15.08-14.83-22.68-32.9-22.68-54.34s7.48-39.51,22.56-54.34C163.54,7.35,181.99,0,204.04,0c19.57,0,36.64,5.98,51.1,18.07,14.33,12.09,23.06,27.42,25.92,45.99h-43.37c-2.37-7.6-6.73-13.83-12.84-18.69-6.23-4.74-13.21-7.11-20.81-7.11-9.84,0-18.32,3.74-25.3,11.22Zm-86.77,54.34l37.01,46.49h-48.85l-31.53-38.26h-7.48v38.26H0V2.49h60.32c1.5,0,3.61.12,6.23.37,2.62.25,7.35,1.37,14.08,3.49,6.61,2.12,12.59,4.74,17.7,8.1,5.11,3.37,9.72,8.85,14.08,16.45,4.24,7.6,6.36,16.58,6.36,26.8,0,21.31-8.97,36.64-26.8,46.11Zm-16.08-46.11c0-11.34-6.23-16.95-15.08-16.95h-19.69v33.03h19.69c9.1,0,15.08-5.11,15.08-16.08Zm242.96-9.32c3.93-3.63,7.35-7.71,10.36-12.2,3.01-4.49,4.49-8.83,4.49-13.02,0-1.18-.05-2.4-.2-3.57-.15-1.17-.66-2.86-1.43-5.1-.82-2.2-1.94-4.14-3.32-5.82-2.81-3.27-8.73-6.18-16.69-6.18-3.78,0-7.05.66-9.8,2.04-2.76,1.38-4.75,2.86-6.02,4.54-1.28,1.68-2.3,3.68-3.01,5.97-.77,2.35-1.17,4.03-1.28,5.05-.15,1.07-.2,2.09-.2,3.06v4.49h16.95v-4.49c0-3.32,1.28-5,3.88-5,2.86,0,4.29,1.58,4.29,4.7,0,4.65-7.96,13.73-23.84,27.31v13.89h41.3v-15.67h-15.47Zm-26.47,37.82h41.3v-12.54h-41.3v12.54Zm0,19.79h41.3v-10.03h-41.3v10.03Zm0,17.28h41.3v-7.52h-41.3v7.52Zm0,14.77h41.3v-5.02h-41.3v5.02Zm0,12.26h41.3v-2.51h-41.3v2.51Z" class="cls-3"></path>
    </clipPath>
  </defs>
  <g>
    <path d="m21.87,212.82l10.37,13.32h-6.75l-10.02-12.83H7.04v12.83H1.13v-41.7h16.07c.81,0,1.65.04,2.46.11s2.07.35,3.73.88,3.06,1.27,4.25,2.18,2.25,2.36,3.2,4.29,1.41,4.25,1.41,6.96c0,7.63-3.45,12.3-10.37,13.96Zm-14.84-22.96v18.07h10.3c6.01,0,9-2.99,9-9s-2.99-9.07-9-9.07H7.04Z" class="cls-2"></path>
    <path d="m39.27,226.14v-41.7h5.91v41.7h-5.91Z" class="cls-2"></path>
    <path d="m76.5,226.14h-8.37l-15.93-41.7h6.36l13.75,36,13.75-36h6.33l-15.89,41.7Z" class="cls-2"></path>
    <path d="m105.33,220.73h21.48v5.41h-27.39v-41.7h27.39v5.41h-21.48v13.25h19.9v5.38h-19.9v12.23Z" class="cls-2"></path>
    <path d="m156.45,212.82l10.37,13.32h-6.75l-10.02-12.83h-8.44v12.83h-5.91v-41.7h16.07c.81,0,1.65.04,2.46.11s2.07.35,3.73.88,3.06,1.27,4.25,2.18,2.25,2.36,3.2,4.29,1.41,4.25,1.41,6.96c0,7.63-3.45,12.3-10.37,13.96Zm-14.84-22.96v18.07h10.3c6.01,0,9-2.99,9-9s-2.99-9.07-9-9.07h-10.3Z" class="cls-2"></path>
    <path d="m192.77,220.62c-4.36-4.18-6.54-9.28-6.54-15.29s2.18-11.11,6.54-15.29c4.32-4.18,9.56-6.29,15.71-6.29,4.85,0,9.18,1.34,13.01,3.97,3.8,2.67,6.47,6.15,8.02,10.48h-6.71c-1.37-2.74-3.34-4.96-5.87-6.61-2.57-1.65-5.38-2.46-8.44-2.46-4.46,0-8.3,1.55-11.5,4.68-3.23,3.13-4.85,7-4.85,11.53s1.62,8.19,4.85,11.39,7.07,4.82,11.5,4.82c3.06,0,5.87-.84,8.44-2.5,2.53-1.65,4.5-3.83,5.87-6.57h6.71c-1.55,4.32-4.22,7.8-8.02,10.48-3.83,2.67-8.16,4.01-13.01,4.01-6.15,0-11.39-2.11-15.71-6.33Z" class="cls-2"></path>
    <path d="m237.52,226.14v-41.7h5.91v41.7h-5.91Z" class="cls-2"></path>
    <path d="m265.58,189.86h-13.89v-5.41h33.71v5.41h-13.92v36.28h-5.91v-36.28Z" class="cls-2"></path>
    <path d="m308.61,205.26l11.32-20.81h6.68l-15.05,27.67v14.03h-5.91v-14.03l-15.05-27.67h6.71l11.29,20.81Z" class="cls-2"></path>
    <path d="m.85,236.95h8.03c.2,0,.48.02.83.05.35.03.98.18,1.87.46.88.28,1.68.63,2.36,1.08s1.29,1.18,1.87,2.19c.56,1.01.85,2.21.85,3.57,0,2.84-1.19,4.88-3.57,6.14l4.93,6.19h-6.5l-4.2-5.09h-1v5.09H.85v-19.67Zm8.09,5.09h-2.62v4.4h2.62c1.21,0,2.01-.68,2.01-2.14s-.83-2.26-2.01-2.26Z" class="cls-2"></path>
    <path d="m33.39,256.63l-.88-2.41h-6.77l-.85,2.41h-5.87l7.23-19.67h5.77l7.23,19.67h-5.87Zm-4.25-11.76l-1.53,4.25h3.05l-1.53-4.25Z" class="cls-2"></path>
    <path d="m41.35,256.63v-19.67h5.47v19.67h-5.47Z" class="cls-2"></path>
    <path d="m67.67,236.95v19.67h-5.03l-6.97-9.59v9.59h-5.47v-19.67h5.04l6.95,9.62v-9.62h5.47Z" class="cls-2"></path>
    <path d="m71.06,256.63v-19.67h8.53c.18,0,.4,0,1.28.13.88.15,1.68.32,2.67.85,1.41.75,2.5,2.02,2.55,4.3,0,1.77-.61,3.13-1.84,4.1,1.74,1.01,2.62,2.45,2.62,4.3,0,4-2.7,6-8.09,6h-7.71Zm8.53-14.78h-3.05v2.59h3.05c.13-.05.37-.03.73-.46.18-.22.26-.48.26-.83,0-.68-.4-1.14-.75-1.23l-.25-.07Zm-3.05,9.89h3.17c1.01,0,1.53-.45,1.53-1.36,0-.81-.51-1.23-1.53-1.23h-3.17v2.59Z" class="cls-2"></path>
    <path d="m99.12,236.62c2.92,0,5.37.98,7.38,2.95s3,4.38,3,7.23-1,5.26-3,7.23c-2.01,1.97-4.46,2.97-7.38,2.97s-5.39-1-7.4-2.97c-2.01-1.97-3-4.38-3-7.23s1-5.26,3-7.23,4.46-2.95,7.4-2.95Zm0,15.28c1.31,0,2.42-.5,3.35-1.49s1.39-2.19,1.39-3.6-.46-2.6-1.39-3.6-2.04-1.49-3.35-1.49-2.44.5-3.37,1.49-1.39,2.19-1.39,3.6.46,2.6,1.39,3.6,2.06,1.49,3.37,1.49Z" class="cls-2"></path>
    <path d="m126.83,236.95l2.95,12.22,2.55-12.22h5.94l-5.03,19.67h-6.67l-2.3-8.76-2.31,8.76h-6.67l-5.03-19.67h5.95l2.54,12.22,2.97-12.22h5.09Z" class="cls-2"></path>
    <path d="m166.72,248.47c-.38,2.44-1.54,4.48-3.47,6.1-1.92,1.62-4.18,2.44-6.78,2.44-2.92,0-5.37-1-7.38-2.97-2.01-1.97-3.02-4.38-3.02-7.23s1-5.26,3-7.23,4.46-2.95,7.4-2.95c2.6,0,4.88.8,6.8,2.41,1.91,1.61,3.07,3.65,3.45,6.12h-5.77c-.32-1.01-.9-1.84-1.71-2.49-.83-.63-1.76-.95-2.77-.95-1.31,0-2.44.5-3.37,1.49s-1.39,2.19-1.39,3.6.46,2.6,1.39,3.6,2.06,1.49,3.37,1.49c1.01,0,1.94-.33,2.75-.98.81-.65,1.38-1.46,1.73-2.45h5.77Z" class="cls-2"></path>
    <path d="m179.23,236.62c2.92,0,5.37.98,7.38,2.95s3,4.38,3,7.23-1,5.26-3,7.23c-2.01,1.97-4.46,2.97-7.38,2.97s-5.39-1-7.4-2.97c-2.01-1.97-3-4.38-3-7.23s1-5.26,3-7.23,4.46-2.95,7.4-2.95Zm0,15.28c1.31,0,2.42-.5,3.35-1.49s1.39-2.19,1.39-3.6-.46-2.6-1.39-3.6-2.04-1.49-3.35-1.49-2.44.5-3.37,1.49-1.39,2.19-1.39,3.6.46,2.6,1.39,3.6,2.06,1.49,3.37,1.49Z" class="cls-2"></path>
    <path d="m198.13,236.95v14.58h8.62v5.09h-14.1v-19.67h5.47Z" class="cls-2"></path>
    <path d="m214.44,236.95v14.58h8.62v5.09h-14.1v-19.67h5.47Z" class="cls-2"></path>
    <path d="m230.74,242.05v2.32h7.95v5.09h-7.95v2.07h8.62v5.09h-14.1v-19.67h14.1v5.09h-8.62Z" class="cls-2"></path>
    <path d="m262.67,248.47c-.38,2.44-1.54,4.48-3.47,6.1-1.92,1.62-4.18,2.44-6.78,2.44-2.92,0-5.37-1-7.38-2.97-2.01-1.97-3.02-4.38-3.02-7.23s1-5.26,3-7.23,4.46-2.95,7.4-2.95c2.6,0,4.88.8,6.8,2.41,1.91,1.61,3.07,3.65,3.45,6.12h-5.77c-.32-1.01-.9-1.84-1.71-2.49-.83-.63-1.76-.95-2.77-.95-1.31,0-2.44.5-3.37,1.49s-1.39,2.19-1.39,3.6.46,2.6,1.39,3.6,2.06,1.49,3.37,1.49c1.01,0,1.94-.33,2.75-.98.81-.65,1.38-1.46,1.73-2.45h5.77Z" class="cls-2"></path>
    <path d="m269.18,242.05h-5.61v-5.09h16.69v5.09h-5.61v14.58h-5.47v-14.58Z" class="cls-2"></path>
    <path d="m282.78,256.63v-19.67h5.47v19.67h-5.47Z" class="cls-2"></path>
    <path d="m300.35,248.71l4.25-11.76h5.87l-7.23,19.67h-5.77l-7.25-19.67h5.89l4.25,11.76Z" class="cls-2"></path>
    <path d="m317.9,242.05v2.32h7.95v5.09h-7.95v2.07h8.62v5.09h-14.1v-19.67h14.1v5.09h-8.62Z" class="cls-2"></path>
  </g>
  <rect height="1" width="330.13" y="167.96" x=".2" class="cls-2"></rect>
  <g class="cls-1">
    <g>
      <polygon points="196.97 321.13 -42.03 26.31 -79.08 56.34 159.92 351.16 196.97 321.13 196.97 321.13" class="cls-7"></polygon>
      <polygon points="234.02 291.09 -4.98 -3.72 -42.03 26.31 196.97 321.13 234.02 291.09 234.02 291.09" class="cls-6"></polygon>
      <polygon points="271.07 261.06 32.07 -33.76 -4.98 -3.72 234.02 291.09 271.07 261.06 271.07 261.06" class="cls-13"></polygon>
      <polygon points="308.12 231.02 69.12 -63.79 32.07 -33.76 271.07 261.06 308.12 231.02 308.12 231.02" class="cls-11"></polygon>
      <polygon points="345.17 200.99 106.16 -93.83 69.12 -63.79 308.12 231.02 345.17 200.99 345.17 200.99" class="cls-4"></polygon>
      <polygon points="382.21 170.95 143.21 -123.86 106.16 -93.83 345.17 200.99 382.21 170.95 382.21 170.95" class="cls-12"></polygon>
    </g>
    <g>
      <polygon points="348.36 103.08 253.77 -13.59 296.92 71.89 336.9 112.36 348.36 103.08 348.36 103.08" class="cls-5"></polygon>
      <polygon points="359.81 93.79 265.23 -22.88 253.77 -13.59 348.36 103.08 359.81 93.79 359.81 93.79" class="cls-10"></polygon>
      <polygon points="371.26 84.51 276.68 -32.16 265.23 -22.88 359.81 93.79 371.26 84.51 371.26 84.51" class="cls-8"></polygon>
      <polygon points="382.72 75.22 288.13 -41.45 276.68 -32.16 371.26 84.51 382.72 75.22 382.72 75.22" class="cls-9"></polygon>
    </g>
  </g>
</svg>